<svg width="18" height="16" viewBox="0 0 18 16" fill="none" xmlns="http://www.w3.org/2000/svg">
<path d="M9.00008 2C10.1727 2 11.2831 2.26667 12.3313 2.8C13.3352 3.31556 14.1813 4.02889 14.8697 4.94C15.5582 5.85111 16.0046 6.87111 16.2089 8C16.0046 9.12889 15.5582 10.1489 14.8697 11.06C14.1813 11.9711 13.3352 12.6844 12.3313 13.2C11.2831 13.7333 10.1727 14 9.00008 14C7.82749 14 6.71707 13.7333 5.66883 13.2C4.66502 12.6844 3.81888 11.9711 3.13042 11.06C2.44196 10.1489 1.99558 9.12889 1.79126 8C1.99558 6.87111 2.44196 5.85111 3.13042 4.94C3.81888 4.02889 4.66502 3.31556 5.66883 2.8C6.71707 2.26667 7.82749 2 9.00008 2ZM9.00008 12.6667C9.92395 12.6667 10.8034 12.4622 11.6384 12.0533C12.4468 11.6622 13.1331 11.1111 13.6971 10.4C14.2612 9.68889 14.6454 8.88889 14.8498 8C14.6454 7.11111 14.2612 6.31111 13.6971 5.6C13.1331 4.88889 12.4468 4.33778 11.6384 3.94667C10.8034 3.53778 9.92395 3.33333 9.00008 3.33333C8.07622 3.33333 7.19677 3.53778 6.36173 3.94667C5.55335 4.33778 4.86711 4.88889 4.30302 5.6C3.73893 6.31111 3.35473 7.11111 3.15041 8C3.35473 8.88889 3.73893 9.68889 4.30302 10.4C4.86711 11.1111 5.55335 11.6622 6.36173 12.0533C7.19677 12.4622 8.07622 12.6667 9.00008 12.6667ZM9.00008 11C8.4582 11 7.95851 10.8644 7.50102 10.5933C7.04353 10.3222 6.67931 9.95778 6.40837 9.5C6.13743 9.04222 6.00196 8.54222 6.00196 8C6.00196 7.45778 6.13743 6.95778 6.40837 6.5C6.67931 6.04222 7.04353 5.67778 7.50102 5.40667C7.95851 5.13556 8.4582 5 9.00008 5C9.54197 5 10.0417 5.13556 10.4991 5.40667C10.9566 5.67778 11.3209 6.04222 11.5918 6.5C11.8627 6.95778 11.9982 7.45778 11.9982 8C11.9982 8.54222 11.8627 9.04222 11.5918 9.5C11.3209 9.95778 10.9566 10.3222 10.4991 10.5933C10.0417 10.8644 9.54197 11 9.00008 11ZM9.00008 9.66667C9.30212 9.66667 9.57972 9.59111 9.8329 9.44C10.0861 9.28889 10.2882 9.08667 10.4392 8.83333C10.5902 8.58 10.6657 8.30222 10.6657 8C10.6657 7.69778 10.5902 7.42 10.4392 7.16667C10.2882 6.91333 10.0861 6.71111 9.8329 6.56C9.57972 6.40889 9.30212 6.33333 9.00008 6.33333C8.69805 6.33333 8.42045 6.40889 8.16727 6.56C7.9141 6.71111 7.712 6.91333 7.56098 7.16667C7.40997 7.42 7.33446 7.69778 7.33446 8C7.33446 8.30222 7.40997 8.58 7.56098 8.83333C7.712 9.08667 7.9141 9.28889 8.16727 9.44C8.42045 9.59111 8.69805 9.66667 9.00008 9.66667Z" fill="#9CA3AF"/>
</svg>
