<?xml version="1.0" encoding="UTF-8"?>
<svg version="1.1" xmlns="http://www.w3.org/2000/svg" width="2052" height="1891">
<path d="M0 0 C7.17936614 2.02065674 14.06958103 4.50520187 21 7.25 C104.10710766 39.61297839 189.78931983 66.31783347 276 89 C277.00345459 89.26427795 278.00690918 89.52855591 279.04077148 89.80084229 C310.70252541 98.11122713 342.67665634 104.84299716 374.73876953 111.39428711 C375.53251795 111.55654345 376.32626637 111.71879978 377.14406776 111.88597298 C381.86999964 112.85182248 381.86999964 112.85182248 386.59646988 113.81503296 C395.14569399 115.55546463 403.67056519 117.35647565 412.17105103 119.3240509 C429.94683996 123.42939016 447.90621645 126.33058344 465.90429688 129.26342773 C470.24445584 129.97249998 474.58306192 130.69095061 478.921875 131.40820312 C488.27905146 132.95244536 497.63741864 134.48884316 507 136 C507.79845778 136.12921593 508.59691555 136.25843185 509.41956902 136.39156342 C519.19108584 137.96922175 528.95648699 139.46562233 538.78515625 140.6484375 C539.90997406 140.78612045 541.03479187 140.92380341 542.19369507 141.06565857 C545.81607309 141.50686932 549.4391539 141.9418151 553.0625 142.375 C554.31934601 142.52585052 555.57619202 142.67670105 556.87112427 142.8321228 C608.38819863 148.99741596 659.46888226 152.8948911 711.31933594 154.21557617 C713.43694845 154.27026983 715.5545505 154.32533865 717.67214394 154.38076591 C719.13017286 154.41892615 720.58821013 154.45676884 722.04625511 154.49431038 C731.61725437 154.74402518 741.18124401 155.07926923 750.74633789 155.49902344 C781.49696017 156.8356681 812.18452268 157.31662982 842.96362305 157.26074219 C849.29724414 157.24934273 855.63069714 157.25615097 861.96431255 157.26761723 C905.57116162 157.33455661 949.05778284 156.08030965 992.5625 153.0625 C995.14444121 152.88805534 997.72639124 152.71374131 1000.30834961 152.53955078 C1014.23466619 151.58999555 1028.15600737 150.58291721 1042.0625 149.375 C1043.34906494 149.26422119 1044.63562988 149.15344238 1045.96118164 149.03930664 C1051.24468327 148.55386981 1056.43119473 147.93369707 1061.65698242 147.01367188 C1067.74733229 145.9808628 1073.79337199 145.46934462 1079.953125 145.0703125 C1094.26420316 144.05431383 1108.49634166 142.49206821 1122.75 140.875 C1126.43646046 140.45820249 1130.12305328 140.04278311 1133.81011963 139.63137817 C1136.07427717 139.37865353 1138.33809604 139.1228691 1140.60150146 138.86349487 C1145.42461108 138.32429757 1150.13710503 137.83357721 1155 138 C1150.55344026 142.7674455 1145.50914912 146.58275762 1140.3125 150.5 C1139.37986328 151.20705078 1138.44722656 151.91410156 1137.48632812 152.64257812 C1130.99413915 157.54592412 1124.42666623 162.333937 1117.80957031 167.06665039 C1111.97894071 171.25236524 1106.26019366 175.57296563 1100.5625 179.9375 C1081.48842209 194.54531618 1062.04583269 208.66137015 1042.39404297 222.48095703 C1037.23386085 226.11466975 1032.11064499 229.79700846 1027 233.5 C1019.11679358 239.20884983 1011.18626811 244.84638969 1003.22021484 250.43896484 C1000.92119203 252.05540996 998.62648186 253.67785406 996.33203125 255.30078125 C987.11583617 261.80436549 977.82192847 268.17878737 968.4375 274.4375 C967.46288818 275.08750977 966.48827637 275.73751953 965.48413086 276.40722656 C955.27345383 283.18822364 944.90099796 289.70368316 934.5 296.1875 C927.78591676 300.37516325 921.0812903 304.57590889 914.40478516 308.82324219 C907.19114512 313.40977588 899.92082285 317.85830348 892.53100586 322.1550293 C886.11168462 325.89981775 879.81087715 329.8240337 873.50708008 333.75927734 C866.75491263 337.95615905 859.92375304 342.00942182 853.06729126 346.03268433 C844.87783568 350.83874298 836.77071868 355.68971539 828.9375 361.0625 C819.88626596 367.25605808 810.40361663 372.63248725 800.87890625 378.05859375 C794.45072608 381.7240984 788.08599377 385.48839552 781.73165894 389.2796936 C771.74010908 395.23891363 761.68975404 401.05000271 751.48291016 406.63183594 C748.61886112 408.21001989 745.7682213 409.8110977 742.91796875 411.4140625 C712.03234481 428.75616022 680.47765254 445.34826402 647.875 459.25 C628.49809075 467.54022154 609.84149258 477.60252754 591.26049805 487.52636719 C580.18709793 493.43133914 568.96848174 498.89373243 557.5625 504.125 C555.77192927 504.95010118 553.98140284 505.77529847 552.19091797 506.60058594 C513.83724259 524.24615416 475.11397353 541.10828061 436 557 C435.20055969 557.32484375 434.40111938 557.6496875 433.57745361 557.984375 C383.23085318 578.42299207 332.32565588 597.14541712 280.84799194 614.54055786 C272.61899604 617.32339728 264.42829202 620.17016625 256.3125 623.26953125 C255.24520157 623.677089 255.24520157 623.677089 254.15634155 624.09288025 C253.44523224 624.36459549 252.73412292 624.63631073 252.00146484 624.91625977 C235.81003528 631.10203045 219.49787916 636.26874402 202.83125305 641.01657104 C201.95494736 641.26633698 201.07864166 641.51610291 200.17578125 641.7734375 C199.28581955 642.02699005 198.39585785 642.2805426 197.47892761 642.54177856 C187.12603056 645.50902584 176.84728164 648.7136131 166.56292725 651.90872192 C148.398178 657.54950254 130.2036851 663.07134378 111.9375 668.375 C110.52615784 668.78768631 110.52615784 668.78768631 109.08630371 669.20870972 C100.66020144 671.66869604 92.38016447 674.05954116 83.70239258 675.44702148 C80.38800652 676.12522949 77.26267239 677.14744096 74.046875 678.19921875 C63.17984085 681.74147114 52.05249359 684.28211517 40.94140625 686.93139648 C37.21427962 687.82102611 33.48988246 688.72148979 29.765625 689.62304688 C27.39077832 690.19334715 25.01578364 690.76303158 22.640625 691.33203125 C21.53027893 691.60070511 20.41993286 691.86937897 19.27593994 692.14619446 C18.24676453 692.39032578 17.21758911 692.63445709 16.15722656 692.88598633 C15.25506409 693.10184891 14.35290161 693.31771149 13.42340088 693.54011536 C11 694 11 694 7 694 C6.7525 693.195625 6.505 692.39125 6.25 691.5625 C5.27761141 688.828919 5.27761141 688.828919 2.875 688.1875 C2.25625 688.125625 1.6375 688.06375 1 688 C1.33 689.32 1.66 690.64 2 692 C0.11351956 693.03801555 -1.78463656 694.05483167 -3.6875 695.0625 C-4.74324219 695.63097656 -5.79898438 696.19945312 -6.88671875 696.78515625 C-10.22387221 698.08735791 -11.65035056 698.08754852 -15 697 C-15 695.02 -15 693.04 -15 691 C-16.98 691.33 -18.96 691.66 -21 692 C-21 693.98 -21 695.96 -21 698 C-21.515625 697.7525 -22.03125 697.505 -22.5625 697.25 C-25.73981969 696.92412106 -27.17140186 698.23009529 -29.79296875 699.875 C-34.51934676 702.28419799 -40.66765383 704 -46 704 C-46.268125 704.78375 -46.53625 705.5675 -46.8125 706.375 C-48 709 -48 709 -51 711 C-50.26083824 705.97370003 -48.63107238 701.63107238 -45 698 C-47.31 698.33 -49.62 698.66 -52 699 C-51.9175 700.258125 -51.835 701.51625 -51.75 702.8125 C-51.75690156 706.71188333 -51.75690156 706.71188333 -53.6875 709 C-56.3119388 710.13489245 -58.16910178 710.23590819 -61 710 C-61.433125 709.071875 -61.86625 708.14375 -62.3125 707.1875 C-63.73439108 704.11444921 -63.73439108 704.11444921 -65.48657227 702.53613281 C-67.14540667 700.85241188 -67.93399649 699.38177593 -68.90234375 697.234375 C-69.23556641 696.50863281 -69.56878906 695.78289063 -69.91210938 695.03515625 C-70.25048828 694.28105469 -70.58886719 693.52695313 -70.9375 692.75 C-71.61034661 691.26429246 -72.28610483 689.77989992 -72.96484375 688.296875 C-73.29468262 687.57564453 -73.62452148 686.85441406 -73.96435547 686.11132812 C-74.97948452 684.04182411 -76.1141679 682.10595146 -77.31640625 680.140625 C-78.14978516 678.58601563 -78.14978516 678.58601563 -79 677 C-78.67 676.01 -78.34 675.02 -78 674 C-77.01 674 -76.02 674 -75 674 C-75.46055786 672.87525269 -75.46055786 672.87525269 -75.93041992 671.7277832 C-77.09638301 668.87845406 -78.26110206 666.02862014 -79.42504883 663.1784668 C-80.16590688 661.36534542 -80.90812836 659.55278134 -81.65039062 657.74023438 C-84.43045925 650.92999916 -87.13358647 644.09698342 -89.76049805 637.22631836 C-95.71620925 621.7241077 -101.74144098 606.43300055 -110 592 C-113.86874422 585.01601698 -113.86874422 585.01601698 -114.421875 580.734375 C-115.03537661 576.77148621 -116.23876715 573.40204208 -117.8125 569.75 C-118.10946777 569.04472168 -118.40643555 568.33944336 -118.71240234 567.61279297 C-122.73068052 558.15065253 -126.93872907 548.76796188 -131.1328125 539.3828125 C-131.6165332 538.30032227 -132.10025391 537.21783203 -132.59863281 536.10253906 C-133.47557161 534.16105157 -134.36377271 532.22456765 -135.26855469 530.29589844 C-137.95853259 524.54454105 -140.28872716 518.70533672 -142.48564148 512.75215149 C-144.68276976 506.80720407 -146.9737207 500.90221105 -149.29296875 495.00390625 C-149.87436867 493.52455597 -149.87436867 493.52455597 -150.46751404 492.01531982 C-151.28320332 489.94120123 -152.09926809 487.86723028 -152.91567993 485.793396 C-158.74041343 470.99640654 -164.54928119 456.19345645 -170.2890625 441.36328125 C-170.71421646 440.26490433 -171.13937042 439.1665274 -171.57740784 438.03486633 C-173.60235608 432.80116407 -175.62442063 427.56636428 -177.64331055 422.33032227 C-178.38303364 420.41542413 -179.12301678 418.50062642 -179.86328125 416.5859375 C-180.21430405 415.67627731 -180.56532684 414.76661713 -180.92698669 413.82939148 C-182.58480284 409.55547595 -184.2766154 405.30228995 -186.06005859 401.07910156 C-186.54662178 399.92457993 -186.54662178 399.92457993 -187.04301453 398.74673462 C-187.6427659 397.33434098 -188.24969378 395.92495974 -188.86579895 394.5196228 C-190.6436408 390.3445002 -191.5097152 386.5020514 -192 382 C-192.30903983 380.66082739 -192.62942911 379.32346746 -193 378 C-191.8274869 378.95117134 -190.66212985 379.91117009 -189.5 380.875 C-188.8503125 381.40867187 -188.200625 381.94234375 -187.53125 382.4921875 C-187.0259375 382.98976563 -186.520625 383.48734375 -186 384 C-186 384.66 -186 385.32 -186 386 C-176.1 385.67 -166.2 385.34 -156 385 C-161.98324002 376.0947429 -161.98324002 376.0947429 -169 371 C-172.86081278 366.30110835 -175.30791819 361.48439849 -177.23046875 355.76171875 C-178.46846774 352.92751802 -180.80659367 351.14118237 -183 349 C-184.36559946 346.73872796 -185.5918349 344.44021727 -186.7890625 342.0859375 C-188.70751501 338.78124833 -190.82169179 337.11887214 -194 335 C-194.6875 332.875 -194.6875 332.875 -195 331 C-194.23357178 330.59740967 -193.46714355 330.19481934 -192.67749023 329.7800293 C-189.79659762 327.86477553 -188.78386204 326.52654053 -187.16015625 323.51953125 C-186.66209473 322.61549561 -186.1640332 321.71145996 -185.65087891 320.7800293 C-185.12671387 319.80074463 -184.60254883 318.82145996 -184.0625 317.8125 C-182.90660934 315.71002324 -181.74900325 313.60848882 -180.58984375 311.5078125 C-179.99671387 310.42661133 -179.40358398 309.34541016 -178.79248047 308.23144531 C-175.98439876 303.16909588 -173.05741346 298.17853324 -170.125 293.1875 C-165.21837978 284.80965968 -160.34484864 276.41371609 -155.5 268 C-150.69160836 259.65194291 -145.86094268 251.31756732 -141 243 C-133.61585107 230.36256546 -126.30509865 217.68324702 -119 205 C-111.12419276 191.3258782 -103.23144154 177.66263026 -95.26928711 164.03857422 C-90.98755083 156.70687521 -86.73779993 149.35717019 -82.5 142 C-77.1208592 132.66136793 -71.70740553 123.34359683 -66.26953125 114.0390625 C-61.98777878 106.70716277 -57.73789061 99.35732762 -53.5 92 C-48.1208592 82.66136793 -42.70740553 73.34359683 -37.26953125 64.0390625 C-32.98777862 56.70716249 -28.73793023 49.35730505 -24.5 42 C-19.43959527 33.21571405 -14.3583902 24.44397619 -9.25 15.6875 C-8.37311523 14.18413086 -8.37311523 14.18413086 -7.47851562 12.65039062 C-5.00794821 8.41972666 -2.5264798 4.19759236 0 0 Z M19 54 C18.64921387 54.63164063 18.29842773 55.26328125 17.93701172 55.9140625 C10.8785223 68.60882547 3.74087602 81.24570489 -3.61254883 93.77246094 C-7.39784297 100.22865025 -11.12194379 106.7169182 -14.81396484 113.22680664 C-20.9545542 124.05373415 -27.24112072 134.7650799 -33.75 145.375 C-41.78958071 158.48820585 -49.24913895 171.85941468 -56.34765625 185.50390625 C-60.44512497 193.36768086 -64.77285793 200.96270811 -69.48144531 208.47729492 C-74.62986949 216.81457548 -79.16106541 225.48723701 -83.69775391 234.16723633 C-86.78529444 240.03405987 -89.96613375 245.66947317 -93.72924805 251.12915039 C-95.32672431 253.48101601 -96.68067298 255.92056959 -98 258.4375 C-100.83562799 263.73312734 -103.84715097 268.88748541 -107 274 C-107.54527344 274.88558594 -108.09054687 275.77117187 -108.65234375 276.68359375 C-112.81657075 283.34069134 -117.31088089 289.70318291 -122 296 C-121.34 296.33 -120.68 296.66 -120 297 C-120 298.32 -120 299.64 -120 301 C-115.46509185 301.02493183 -110.93022461 301.04296857 -106.39526367 301.05493164 C-104.85619409 301.05992496 -103.31712916 301.06672194 -101.77807617 301.07543945 C-91.64872232 301.19241417 -91.64872232 301.19241417 -81.55859375 300.43359375 C-78 300 -78 300 -76 301 C-74.36115736 301.00444031 -72.7219491 300.94013968 -71.0859375 300.84375 C-70.03438477 300.79017334 -68.98283203 300.73659668 -67.89941406 300.68139648 C-66.73635742 300.62153564 -65.57330078 300.5616748 -64.375 300.5 C-49.47598631 299.83687728 -34.65715093 300.20274624 -19.75743103 300.67088318 C0.03534721 301.28366154 19.77544876 300.76305773 39.5625 300.1875 C40.31573296 300.16572441 41.06896591 300.14394882 41.84502411 300.12151337 C71.94311672 299.24879182 102.01123223 298.00803186 132.08056641 296.41210938 C137.40769067 296.13095811 142.73521545 295.86688496 148.06396484 295.61914062 C182.59440699 294.00882982 216.71001985 291.11590108 251.00150013 286.73046494 C254.87577109 286.23516769 258.75024953 285.74153222 262.625 285.25 C263.77164659 285.10453106 263.77164659 285.10453106 264.94145775 284.95612335 C281.92750413 282.81128672 298.94627379 281.12823696 316 279.625 C316.6941954 279.56355301 317.38839081 279.50210602 318.10362244 279.438797 C338.17586051 277.66686069 358.25855017 276.31028483 378.37802124 275.20281982 C395.41303447 274.2577207 412.13171728 272.64250171 429 270 C430.22115509 269.80893677 430.22115509 269.80893677 431.46697998 269.61401367 C436.1082585 268.88658572 440.74898058 268.15562874 445.38964844 267.42431641 C446.3543103 267.27230774 447.31897217 267.12029907 448.31286621 266.96368408 C450.26833118 266.65497565 452.22365425 266.345367 454.17883301 266.03485107 C466.78265252 264.03591344 479.37493129 262.24753862 492.0625 260.875 C493.11426926 260.76114456 493.11426926 260.76114456 494.18728638 260.64498901 C494.88610931 260.56934723 495.58493225 260.49370544 496.30493164 260.41577148 C511.88509852 258.72499404 527.39326418 256.57179689 542.89941406 254.30670166 C544.90016105 254.01457725 546.9012441 253.72475733 548.90234375 253.43505859 C567.32152581 250.74453551 585.60188545 247.45217624 603.89846802 244.03738403 C620.83405002 240.88101897 637.79812349 238.01281783 654.82324219 235.38330078 C664.39022562 233.90473332 673.93533783 232.34012489 683.4697876 230.66394043 C691.37951126 229.27514482 699.29634883 227.93105892 707.21564865 226.59826851 C711.66335731 225.84882993 716.11025737 225.09460497 720.55722618 224.34079075 C724.32648509 223.70220896 728.09612238 223.0660596 731.86669922 222.43530273 C752.14647343 219.0402933 772.25938698 215.17275167 792.34771729 210.78416443 C800.15002671 209.1089673 807.9827827 207.5837538 815.8125 206.04296875 C820.55933473 205.10187707 825.2803245 204.06869701 830 203 C830 202.67 830 202.34 830 202 C829.43279551 201.99245791 828.86559101 201.98491583 828.2811985 201.9771452 C814.20179108 201.78911681 800.12261547 201.58774972 786.04358864 201.37313366 C779.23387995 201.2696212 772.42416757 201.17024573 765.61425781 201.08081055 C730.66335821 200.61819166 695.86524546 199.52899232 661 197 C660.20912994 196.94337315 659.41825989 196.88674629 658.60342407 196.82840347 C649.04200647 196.14357233 639.48836292 195.38224396 629.9375 194.5625 C628.05924026 194.40383957 628.05924026 194.40383957 626.14303589 194.24197388 C606.69490397 192.59443048 587.33735849 190.65172529 568 188 C566.00994844 187.73421723 564.01989532 187.46844544 562.02973938 187.20344543 C541.9613743 184.5250686 541.9613743 184.5250686 533.17578125 183.0078125 C521.85411453 181.10844781 510.76970071 179.89124366 499.29003906 179.57275391 C456.67002851 178.31420505 414.37757487 166.79179395 372.92297363 157.64398193 C370.33574685 157.07397087 367.74774819 156.50772752 365.15917969 155.94384766 C322.17719692 146.56703954 279.58806248 135.24911652 236.98280716 124.30707932 C234.83246005 123.75512339 232.68186767 123.20413237 230.53121948 122.65335083 C226.50543123 121.62194523 222.48114104 120.58481014 218.45703125 119.546875 C217.28365204 119.24645798 216.11027283 118.94604095 214.90133667 118.63652039 C204.97639602 116.06683838 195.18328864 113.12133944 185.46875 109.84375 C184.34702393 109.46694092 183.22529785 109.09013184 182.06958008 108.7019043 C180.89161865 108.30527588 179.71365723 107.90864746 178.5 107.5 C146.87420937 96.54395776 146.87420937 96.54395776 114.75 87.25 C91.72182314 81.48573733 70.03569029 72.83269981 48.31054688 63.39892578 C42.21935919 60.76303489 36.17793877 58.20782858 29.875 56.125 C28.65554688 55.71507812 27.43609375 55.30515625 26.1796875 54.8828125 C22.90762633 53.82165216 22.90762633 53.82165216 19 54 Z M923.93115234 245.32348633 C922.41840225 245.7944146 922.41840225 245.7944146 920.87509155 246.27485657 C919.2469603 246.79815804 919.2469603 246.79815804 917.5859375 247.33203125 C915.89871078 247.85974373 915.89871078 247.85974373 914.17739868 248.39811707 C910.57349767 249.52664299 906.9740651 250.66865394 903.375 251.8125 C899.79685514 252.94389967 896.21782324 254.07226324 892.63687134 255.19474792 C890.40901362 255.89367103 888.18281282 256.59790543 885.95858765 257.30830383 C880.40959906 259.05501224 874.9348851 260.51583051 869.21508789 261.57853699 C866.19203357 262.15373113 863.23905736 262.93032148 860.26953125 263.734375 C859.06578857 264.05825195 857.8620459 264.38212891 856.62182617 264.71582031 C855.36474854 265.05709961 854.1076709 265.39837891 852.8125 265.75 C850.81034349 266.2891216 848.80783459 266.82692086 846.80531311 267.36468506 C845.46304642 267.72521791 844.1208728 268.08609748 842.77879333 268.44732666 C836.7537346 270.06888487 830.7231976 271.66853992 824.6875 273.25 C823.43126831 273.58209473 823.43126831 273.58209473 822.1496582 273.92089844 C817.46362941 275.14646819 812.76513466 276.2944768 808.04640198 277.38800049 C798.71981217 279.5507603 789.47507573 281.94008332 780.25 284.5 C779.10016129 284.81664108 779.10016129 284.81664108 777.92709351 285.13967896 C769.2660532 287.53193608 760.66832047 290.0406773 752.16015625 292.93359375 C751.4370929 293.17940689 750.71402954 293.42522003 749.96905518 293.67848206 C748.87908234 294.0492411 748.87908234 294.0492411 747.76708984 294.42749023 C723.91756459 302.53277949 699.63457706 307.85677773 675 313 C673.05227024 313.40831888 671.10454107 313.81664062 669.15684128 314.22510242 C641.2704884 320.07100397 613.35150341 325.75366097 585.40812683 331.32035828 C583.53878655 331.69313832 581.66950232 332.06620136 579.8004818 332.44058132 C573.13898668 333.77491844 566.47471965 335.0949364 559.80957031 336.41088867 C558.63044571 336.64377594 557.45132111 336.87666321 556.23646545 337.11660767 C545.31515885 339.27326827 534.39332907 341.427277 523.47131729 343.58036327 C516.17315934 345.01911772 508.87517598 346.45874522 501.57763672 347.90063477 C482.72330579 351.62556751 463.86569689 355.33300056 445 359 C443.98242111 359.19801586 442.96484222 359.39603172 441.91642761 359.60004807 C417.94791501 364.2573864 393.95628715 368.0026975 369.75 371.1875 C363.55593561 372.00434385 357.36283764 372.82791208 351.171875 373.66796875 C350.43560568 373.76784088 349.69933636 373.86771301 348.94075584 373.97061157 C340.32563236 375.14866205 331.81569113 376.4838659 323.35792542 378.53248596 C314.1496797 380.75109343 304.78327248 382.13018174 295.43334961 383.60986328 C292.20080259 384.12288879 288.97053138 384.648796 285.74023438 385.17578125 C271.06326008 387.53847137 256.22595813 389.89150408 241.33007812 390.09106445 C229.80955804 390.28082887 218.81184871 391.75647632 207.49097061 393.75981522 C186.16988938 397.51176913 164.79779505 400.3559535 143.29433441 402.81835938 C140.56859304 403.13147977 137.84336471 403.44877718 135.1182251 403.76708984 C105.39541552 407.23318857 75.66993711 410.0454741 45.83132935 412.30148315 C27.95228143 413.616079 27.95228143 413.616079 10.30126953 416.59814453 C5.55904854 417.4262472 0.73952677 417.35119082 -4.0625 417.4375 C-14.74221079 417.7241836 -25.30996927 418.47241127 -35.9375 419.5 C-47.20715216 420.58345658 -58.44267026 421.47627467 -69.75878906 421.90722656 C-71.97354736 421.99890501 -74.18538786 422.11614626 -76.3984375 422.2421875 C-95.91123163 423.32497601 -115.46417283 423.57887002 -135 424 C-134.938125 425.175625 -134.938125 425.175625 -134.875 426.375 C-135 429 -135 429 -137 431 C-136.56300781 432.12921875 -136.56300781 432.12921875 -136.1171875 433.28125 C-134.19945758 438.25046212 -132.28318499 443.21840921 -130.4375 448.21484375 C-130.17727051 448.91738281 -129.91704102 449.61992188 -129.64892578 450.34375 C-129.14443503 451.7085805 -128.64267198 453.07442332 -128.14404297 454.44140625 C-126.1168242 459.91752968 -124.2559179 464.92912201 -120 469 C-118.34780635 471.86152326 -117.66670381 474.35023921 -117.17578125 477.6015625 C-116.09178186 483.36248621 -113.82335242 488.17317049 -111.1875 493.375 C-104.46399808 506.88303412 -99.25644225 520.72395419 -94.21792603 534.92727661 C-87.4369801 553.9916695 -80.15620034 572.73123614 -72.22807312 591.34204102 C-67.11826796 603.37894314 -62.2369772 615.51147705 -57.3125 627.625 C-56.3455339 630.00076291 -55.3784946 632.37649604 -54.41137695 634.75219727 C-50.58400973 644.15882786 -46.76100547 653.56659619 -43 663 C-24.8350103 659.6993729 -6.95027024 655.21838876 10.95574951 650.75701904 C14.22378327 649.94435143 17.49293125 649.13626927 20.76220703 648.32861328 C66.55121662 637.00091239 111.26435693 623.66859737 155.96405029 608.66827393 C176.18462249 601.8833416 196.42639726 595.21278494 216.8125 588.9375 C217.91279541 588.59874847 219.01309082 588.25999695 220.14672852 587.91098022 C234.58680308 583.47764503 249.07329667 579.21311145 263.5793457 575.00146484 C283.02611586 569.35311057 302.23741552 563.67469287 321 556 C322.24695648 555.49019592 322.24695648 555.49019592 323.519104 554.97009277 C331.73357145 551.60886218 339.94632706 548.24332418 348.15298462 544.86306763 C361.93799617 539.18741133 375.76143193 533.73259306 389.8125 528.75 C390.55160614 528.48782684 391.29071228 528.22565369 392.05221558 527.95553589 C394.85606701 526.96194089 397.66018543 525.96910625 400.46488953 524.97792053 C414.2485768 520.09140141 427.60717179 514.36112938 440.90625 508.296875 C446.21501793 505.88567217 451.57157692 503.59306544 456.9375 501.3125 C463.65860017 498.45498954 470.32382353 495.52813557 476.91796875 492.38671875 C479.43053581 491.2562228 481.93900835 490.23120111 484.50390625 489.23046875 C491.04582219 486.63597739 497.38624248 483.62376677 503.75 480.625 C505.07147493 480.00491064 506.39309262 479.38512541 507.71484375 478.765625 C510.45302473 477.48196378 513.19059516 476.19701379 515.92773438 474.91113281 C521.66230042 472.21830599 527.40432585 469.54149162 533.14624023 466.86437988 C536.25925045 465.41283074 539.3718151 463.96032694 542.484375 462.5078125 C543.1023999 462.21942505 543.7204248 461.9310376 544.35717773 461.63391113 C548.14787324 459.86490345 551.93801065 458.09470564 555.72773743 456.32362366 C558.26907775 455.13599714 560.81058609 453.94873052 563.35214233 452.76156616 C564.61800443 452.17023072 565.88381249 451.57877959 567.14956665 450.98721313 C573.56821037 447.98783047 579.9906294 444.99770246 586.43359375 442.05078125 C600.46832924 435.62899557 614.37824436 428.98272257 628.24731445 422.2121582 C629.73387323 421.48646325 631.22044531 420.76079555 632.70703125 420.03515625 C633.42893143 419.68274368 634.1508316 419.33033112 634.89460754 418.96723938 C639.96567707 416.4951571 645.05605784 414.06656721 650.15795898 411.65869141 C669.45221761 402.5429387 688.44551193 392.79832852 706.88989258 382.06225586 C711.785113 379.22342236 716.71626578 376.58262813 721.8125 374.125 C730.75574059 369.79376511 739.23500609 364.68520493 747.7890625 359.640625 C753.62829234 356.20150241 759.52422376 352.87213908 765.4375 349.5625 C776.62151565 343.27960247 787.61225163 336.69579047 798.58837891 330.05810547 C802.22433515 327.86466686 805.866927 325.68261599 809.51171875 323.50390625 C823.20563438 315.31590354 836.86238485 307.07826129 850.39550781 298.62597656 C853.17557354 296.89038997 855.95878208 295.15991249 858.7421875 293.4296875 C864.83833975 289.63599393 870.92236981 285.82328792 877 282 C878.03205566 281.3512793 879.06411133 280.70255859 880.12744141 280.03417969 C892.75517363 272.0788065 905.19913059 263.92626365 917.39086914 255.31469727 C922.50336674 251.70529915 927.65741677 248.2604096 933 245 C929.51212731 243.79250865 927.4138069 244.21961435 923.93115234 245.32348633 Z M-122 282 C-121 284 -121 284 -121 284 Z M604 283 C604 283.33 604 283.66 604 284 C605.65 284 607.3 284 609 284 C609 283.67 609 283.34 609 283 C607.35 283 605.7 283 604 283 Z M584.52905273 285.60473633 C583.28565125 285.77548172 582.04224976 285.94622711 580.76116943 286.12214661 C577.36086162 286.58918677 573.96138407 287.06203392 570.56202579 287.53592896 C566.97867743 288.03443567 563.3945807 288.52750315 559.81056213 289.02116394 C553.00473828 289.95942173 546.19958615 290.90246165 539.39466769 291.84726113 C531.73608809 292.91036987 524.07681716 293.9684527 516.41746223 295.02595866 C507.04004808 296.32068189 497.66270991 297.6159434 488.28599548 298.91572571 C476.7828852 300.51025887 465.2797398 302.10451665 453.77392578 303.67944336 C452.51308245 303.85268363 452.51308245 303.85268363 451.22676754 304.02942371 C443.28858087 305.11285197 435.33809562 306.09508223 427.38256836 307.04223633 C425.93284134 307.21500595 425.93284134 307.21500595 424.4538269 307.39126587 C423.45843903 307.50964813 422.46305115 307.6280304 421.4375 307.75 C420.40126495 307.87361908 419.36502991 307.99723816 418.2973938 308.12460327 C410.19909416 309.09015009 402.0996817 310.04612604 394 311 C392.0506958 311.23000702 392.0506958 311.23000702 390.06201172 311.46466064 C381.86332961 312.43185824 373.66384293 313.39188107 365.46340942 314.34411621 C362.80827535 314.65255694 360.1534627 314.96344266 357.49874878 315.2755127 C353.74839914 315.71577565 349.99735968 316.14965372 346.24609375 316.58203125 C345.15820557 316.71094254 344.07031738 316.83985382 342.94946289 316.97267151 C336.14062123 317.74912234 329.35120631 318.2444484 322.51153278 318.61630344 C315.60999663 318.9996634 308.73620953 319.6009762 301.85489273 320.24987602 C297.97812702 320.61473798 294.10028424 320.96792768 290.22265625 321.32348633 C288.99737056 321.43621305 288.99737056 321.43621305 287.74733162 321.55121708 C257.52074683 324.33069019 227.28894586 326.81952396 197 328.8125 C195.49611296 328.9122143 193.99222703 329.01194544 192.48834229 329.11169434 C182.32797397 329.78274099 172.16532205 330.40887271 162 331 C161.26364067 331.04303757 160.52728134 331.08607513 159.76860809 331.13041687 C131.51445971 332.77436635 103.24839705 333.71509584 74.95953369 334.52801514 C70.48586947 334.65813159 66.01239282 334.79417026 61.53890419 334.93017006 C57.13392024 335.06333689 52.72883439 335.19285368 48.3237114 335.32133102 C46.26777421 335.38167004 44.21186636 335.44302034 42.15599442 335.50554276 C29.30725377 335.89369909 16.47725678 336.03945413 3.6229248 336.00717163 C-7.97827383 335.98280859 -19.57914909 336.10567508 -31.17984319 336.20192909 C-34.67241545 336.23068759 -38.16499697 336.25827861 -41.65757751 336.28601074 C-48.22641347 336.33833786 -54.79524087 336.39166534 -61.36406559 336.4453826 C-68.86147335 336.50664245 -76.3588903 336.56674085 -83.8563081 336.62675762 C-99.23754906 336.74990953 -114.61877827 336.87446823 -130 337 C-129.37295166 337.60287842 -128.74590332 338.20575684 -128.09985352 338.8269043 C-125.69521388 341.31541696 -124.43586613 343.69989408 -122.9375 346.8125 C-122.41671875 347.88113281 -121.8959375 348.94976563 -121.359375 350.05078125 C-120 353 -120 353 -118.6875 356.5 C-116.42766798 361.18705901 -113.33953585 365.04759566 -110.15625 369.1328125 C-108 372 -108 372 -106.53125 374.4921875 C-106.0259375 375.31976562 -105.520625 376.14734375 -105 377 C-104.40968994 378.04333496 -103.81937988 379.08666992 -103.21118164 380.16162109 C-101.30661955 382.38765888 -100.33055043 382.94751473 -97.4024353 383.41244507 C-93.94006744 383.40879562 -90.54138584 383.19806722 -87.08984375 382.921875 C-85.77337357 382.84114243 -84.45690338 382.76040985 -83.10054016 382.67723083 C-79.47282052 382.4532916 -75.84898334 382.18942315 -72.2245636 381.91778183 C-68.35718144 381.63406587 -64.487541 381.3848816 -60.61816406 381.13012695 C-51.56380359 380.52556122 -42.51450353 379.85844195 -33.46520233 379.18296051 C-30.25345027 378.94459314 -27.04132368 378.71155711 -23.82915211 378.47892189 C-1.62841663 376.87064649 20.55629048 375.09432013 42.73387146 373.19390106 C44.93582631 373.00549102 47.1378811 372.81829401 49.33996582 372.63140869 C92.59824894 368.95259051 135.7020212 364.04875619 178.8125 358.9375 C180.7086417 358.71308228 180.7086417 358.71308228 182.64308929 358.48413086 C226.10667918 353.33764026 269.51529056 347.94273507 312.71186447 340.86455917 C315.01215743 340.48777111 317.31271933 340.11265625 319.61331177 339.73770142 C381.05244971 329.70967968 442.15526478 318.01708294 503.14746094 305.58136749 C507.26446155 304.74229386 511.38170714 303.90442516 515.49894428 303.06651306 C545.00291865 297.0620447 574.50301152 291.03868852 604 285 C604 284.67 604 284.34 604 284 C597.40306687 283.75679833 591.0531473 284.68873264 584.52905273 285.60473633 Z M-129 294 C-129.33 294.99 -129.66 295.98 -130 297 C-129.34 297 -128.68 297 -128 297 C-128.33 296.01 -128.66 295.02 -129 294 Z M-137 417 C-137 417.99 -137 418.98 -137 420 C-135.68 419.34 -134.36 418.68 -133 418 C-134.32 417.67 -135.64 417.34 -137 417 Z M-14 690 C-13.67 690.66 -13.34 691.32 -13 692 C-10.69 691.34 -8.38 690.68 -6 690 C-9.05263664 689.01879536 -10.94736336 689.01879536 -14 690 Z M-59 700 C-59 700.99 -59 701.98 -59 703 C-57.35 702.67 -55.7 702.34 -54 702 C-54 701.34 -54 700.68 -54 700 C-55.65 700 -57.3 700 -59 700 Z " fill="#7B9D8C" transform="translate(668,684)"/>
<path d="M0 0 C0.66 0 1.32 0 2 0 C1.690625 0.721875 1.38125 1.44375 1.0625 2.1875 C0.07439461 4.80307309 -0.5287754 7.25118982 -1 10 C-2.32 10 -3.64 10 -5 10 C-10.05480736 12.98538958 -13.15037086 17.36724661 -15.859375 22.4609375 C-16.42398438 23.22277344 -16.42398438 23.22277344 -17 24 C-17.99 24 -18.98 24 -20 24 C-20.20625 24.66 -20.4125 25.32 -20.625 26 C-23.3074395 31.85259528 -27.42865545 36.44234809 -31.84399414 41.08032227 C-38.55731728 48.15734689 -43.8291342 55.74963162 -49 64 C-49.43280273 64.67772461 -49.86560547 65.35544922 -50.31152344 66.05371094 C-61.67812834 83.86332928 -71.41131951 102.70441394 -80 122 C-80.80135376 123.79993408 -80.80135376 123.79993408 -81.61889648 125.63623047 C-87.56016413 139.6646265 -90.80605517 154.43530366 -94.25921631 169.21905518 C-95.07858302 172.71407555 -95.91312963 176.20546605 -96.74609375 179.69726562 C-98.51526246 187.12734932 -100.2652606 194.56179515 -102 202 C-102.42104004 203.79743401 -102.42104004 203.79743401 -102.85058594 205.63117981 C-103.12 206.78752426 -103.38941406 207.94386871 -103.66699219 209.13525391 C-104.02818146 210.68268784 -104.02818146 210.68268784 -104.39666748 212.26138306 C-106.08316493 219.91664835 -106.24937968 227.62649998 -106.5 235.4375 C-106.71071811 241.98146784 -106.98821776 248.44792606 -107.77294922 254.94946289 C-109.65813903 271.97495671 -106.74271432 289.18298233 -104.4119873 306.02307129 C-104.11897597 308.14030606 -103.82755869 310.25776171 -103.53723145 312.37536621 C-102.46839389 320.16531041 -101.37601754 327.95152635 -100.26071167 335.73492432 C-99.8841806 338.36392062 -99.51407543 340.99356675 -99.14724731 343.6239624 C-95.37698271 370.53212678 -89.34946427 396.31530751 -80.5 422 C-79.2257595 425.70381781 -77.96763237 429.41256653 -76.71875 433.125 C-76.28459778 434.36068726 -76.28459778 434.36068726 -75.8416748 435.62133789 C-74.44837578 439.76661479 -73.51512091 442.68822283 -75 447 C-75.99 447.33 -76.98 447.66 -78 448 C-84.46078768 439.88017916 -90.43830799 431.6175243 -95.89111328 422.78710938 C-96.99417095 421.00939423 -98.11887674 419.24684359 -99.24609375 417.484375 C-107.91964885 403.72509074 -114.0380445 388.85144075 -119.8125 373.6875 C-120.1734375 372.74656494 -120.534375 371.80562988 -120.90625 370.83618164 C-147.01034752 300.6692894 -139.15295125 223.55527986 -112.96875 154.6171875 C-111.688603 151.15872583 -110.52486199 147.66565154 -109.35571289 144.16845703 C-106.26813404 134.99116844 -102.53778418 126.47585937 -98.00732422 117.92675781 C-96.65735921 115.34461436 -95.38085148 112.72890048 -94.10083008 110.11157227 C-83.22151292 87.96371043 -70.33468967 67.3461762 -55 48 C-53.93219268 46.56643799 -52.86898723 45.12942483 -51.8125 43.6875 C-48.77532575 39.62928142 -45.64457561 35.53185677 -42 32 C-41.34 32 -40.68 32 -40 32 C-39.74089844 31.42378906 -39.48179687 30.84757813 -39.21484375 30.25390625 C-37.90400618 27.82190213 -36.40402166 25.99287579 -34.5625 23.9375 C-33.66724609 22.93009766 -33.66724609 22.93009766 -32.75390625 21.90234375 C-32.17511719 21.27457031 -31.59632813 20.64679687 -31 20 C-30.47277344 19.42378906 -29.94554687 18.84757813 -29.40234375 18.25390625 C-28 17 -28 17 -26 17 C-25.505 15.515 -25.505 15.515 -25 14 C-23.51964312 12.71273315 -22.03511402 11.42848014 -20.5 10.20703125 C-18.88344506 8.9062097 -17.42657911 7.5058335 -16 6 C-15.01 6.495 -15.01 6.495 -14 7 C-15.10177486 10.30532457 -15.89683433 11.01303027 -18.5 13.1875 C-19.5828125 14.11175781 -19.5828125 14.11175781 -20.6875 15.0546875 C-22.20670499 16.33266737 -23.72749204 17.60876938 -25.25 18.8828125 C-30.91565177 23.74189579 -35.51682049 29.03871498 -40 35 C-35.2472196 31.42613193 -31.16891138 27.28140755 -27 23.0625 C-25.95199219 22.00772461 -25.95199219 22.00772461 -24.8828125 20.93164062 C-23.52887352 19.56876054 -22.17744618 18.2033795 -20.82885742 16.83520508 C-19.70573472 15.7081842 -18.57037502 14.59301125 -17.4152832 13.4987793 C-14.2027685 10.44835605 -13.31165304 8.46702694 -13 4 C-12.34 4 -11.68 4 -11 4 C-11 4.99 -11 5.98 -11 7 C-10.0925 6.175 -9.185 5.35 -8.25 4.5 C-5.46375503 1.96705003 -5.12741739 2 -1 2 C-0.67 1.34 -0.34 0.68 0 0 Z M-42 37 C-45.26008643 40.16952847 -48.22237877 43.39937989 -51 47 C-50.67 47.66 -50.34 48.32 -50 49 C-47.03 45.7 -44.06 42.4 -41 39 C-41.33 38.34 -41.66 37.68 -42 37 Z M-53 50 C-53 53 -53 53 -53 53 Z M-57 55 C-56 57 -56 57 -56 57 Z " fill="#7B9D8C" transform="translate(423,591)"/>
<path d="M0 0 C3.31360798 2.20907199 3.52183252 2.79477593 4.75 6.375 C10.82247551 22.22711771 21.36740287 35.07767425 35 45 C35.83917969 45.66515625 36.67835938 46.3303125 37.54296875 47.015625 C57.57467245 62.52022284 83.34596374 67.42932095 108 70 C107.505 71.485 107.505 71.485 107 73 C88.5150679 78.08676264 66.67112704 75.3623283 50 66 C42.04790343 61.13670303 33.49745094 55.74942618 27 49 C27 48.34 27 47.68 27 47 C26.44828125 46.78859375 25.8965625 46.5771875 25.328125 46.359375 C22.1812076 44.52191316 20.06129121 42.01018002 17.75 39.25 C17.26909912 38.67725342 16.78819824 38.10450684 16.29272461 37.5144043 C7.69068676 26.97315392 2.08170575 14.92540155 -2 2 C-1.34 2 -0.68 2 0 2 C0 1.34 0 0.68 0 0 Z " fill="#7B9D8C" transform="translate(370,1098)"/>
<path d="M0 0 C0.33 0.99 0.66 1.98 1 3 C0.01 4.485 0.01 4.485 -1 6 C-1.66 5.67 -2.32 5.34 -3 5 C-2.01 3.35 -1.02 1.7 0 0 Z " fill="#7B9D8C" transform="translate(415,589)"/>
</svg>
